<?xml version="1.0" encoding="UTF-8"?>
<!DOCTYPE svg PUBLIC "-//W3C//DTD SVG 1.1//EN" "http://www.w3.org/Graphics/SVG/1.1/DTD/svg11.dtd">
<svg xmlns="http://www.w3.org/2000/svg" version="1.1" width="256px" height="256px" style="shape-rendering:geometricPrecision; text-rendering:geometricPrecision; image-rendering:optimizeQuality; fill-rule:evenodd; clip-rule:evenodd" xmlns:xlink="http://www.w3.org/1999/xlink">
<g><path style="opacity:1" fill="#5764f1" d="M 34.5,-0.5 C 107.5,-0.5 180.5,-0.5 253.5,-0.5C 253.833,0.5 254.5,1.16667 255.5,1.5C 255.5,74.5 255.5,147.5 255.5,220.5C 252.282,240.052 240.948,251.718 221.5,255.5C 158.5,255.5 95.5,255.5 32.5,255.5C 14.5,251.5 3.5,240.5 -0.5,222.5C -0.5,159.5 -0.5,96.5 -0.5,33.5C 3.28159,14.0518 14.9483,2.71843 34.5,-0.5 Z"/></g>
<g><path style="opacity:1" fill="#000000" d="M 30.5,7.5 C 84.8333,7.5 139.167,7.5 193.5,7.5C 193.333,21.1707 193.5,34.8374 194,48.5C 194.833,52 197,54.1667 200.5,55C 216.163,55.4999 231.83,55.6666 247.5,55.5C 247.667,111.834 247.5,168.168 247,224.5C 243.5,236 236,243.5 224.5,247C 159.833,247.667 95.1667,247.667 30.5,247C 19,243.5 11.5,236 8,224.5C 7.33333,159.833 7.33333,95.1667 8,30.5C 11.684,18.9837 19.184,11.3171 30.5,7.5 Z"/></g>
<g><path style="opacity:1" fill="#000001" d="M 209.5,16.5 C 213.514,16.3345 217.514,16.5012 221.5,17C 225.558,20.8994 225.224,24.5661 220.5,28C 221.585,30.172 222.919,32.172 224.5,34C 223.056,34.7805 221.723,34.6139 220.5,33.5C 219.79,28.7811 217.123,26.7811 212.5,27.5C 212.5,29.8333 212.5,32.1667 212.5,34.5C 211.5,34.5 210.5,34.5 209.5,34.5C 209.335,31.4816 209.502,28.4816 210,25.5C 213.411,24.7069 216.911,24.2069 220.5,24C 221.833,22.6667 221.833,21.3333 220.5,20C 216.848,19.5014 213.182,19.3347 209.5,19.5C 209.5,18.5 209.5,17.5 209.5,16.5 Z"/></g>
<g><path style="opacity:1" fill="#000000" d="M 229.5,20.5 C 240.747,19.2397 244.08,23.7397 239.5,34C 236.183,34.4983 232.85,34.665 229.5,34.5C 229.799,36.604 229.466,38.604 228.5,40.5C 227.336,34.5276 227.17,28.5276 228,22.5C 228.717,21.9558 229.217,21.2891 229.5,20.5 Z"/></g>
<g><path style="opacity:1" fill="#5662ed" d="M 230.5,23.5 C 237.878,21.8743 240.211,24.5409 237.5,31.5C 234.916,32.3928 232.249,32.7261 229.5,32.5C 229.368,29.4299 229.701,26.4299 230.5,23.5 Z"/></g>
<g><path style="opacity:1" fill="#5764f1" d="M 74.5,31.5 C 78.5839,31.0431 82.4172,31.7098 86,33.5C 86.1667,34.3333 86.3333,35.1667 86.5,36C 85.2695,38.5131 85.2695,41.0131 86.5,43.5C 86.4712,45.0293 85.8045,46.196 84.5,47C 81.1832,47.4983 77.8499,47.665 74.5,47.5C 74.5,42.1667 74.5,36.8333 74.5,31.5 Z"/></g>
<g><path style="opacity:1" fill="#5764f1" d="M 93.5,31.5 C 102.431,31.3123 105.598,35.6457 103,44.5C 100.091,47.3939 96.5913,48.2272 92.5,47C 87.0267,41.4135 87.36,36.2469 93.5,31.5 Z"/></g>
<g><path style="opacity:1" fill="#5764f1" d="M 107.5,31.5 C 109.722,31.178 111.556,31.8446 113,33.5C 117.948,49.4526 120.448,48.786 120.5,31.5C 121.662,36.467 121.829,41.467 121,46.5C 119.612,47.5536 118.112,47.7203 116.5,47C 114.206,42.912 112.039,38.7453 110,34.5C 109.501,38.8206 109.334,43.1539 109.5,47.5C 108.5,47.5 107.5,47.5 106.5,47.5C 106.218,42.0735 106.551,36.7401 107.5,31.5 Z"/></g>
<g><path style="opacity:1" fill="#5865f2" d="M 127.5,31.5 C 130.5,31.5 133.5,31.5 136.5,31.5C 136.5,32.5 136.5,33.5 136.5,34.5C 133.5,34.5 130.5,34.5 127.5,34.5C 127.5,35.8333 127.5,37.1667 127.5,38.5C 138.535,38.8165 138.868,39.6498 128.5,41C 127.663,42.0113 127.33,43.1779 127.5,44.5C 130.5,44.5 133.5,44.5 136.5,44.5C 136.5,45.5 136.5,46.5 136.5,47.5C 133.15,47.665 129.817,47.4983 126.5,47C 123.833,44.6667 123.833,42.3333 126.5,40C 123.751,36.7624 124.085,33.929 127.5,31.5 Z"/></g>
<g><path style="opacity:1" fill="#5764f0" d="M 139.5,31.5 C 140.5,31.5 141.5,31.5 142.5,31.5C 142.5,35.8333 142.5,40.1667 142.5,44.5C 145.167,44.5 147.833,44.5 150.5,44.5C 150.5,45.5 150.5,46.5 150.5,47.5C 147.223,47.7839 144.057,47.4505 141,46.5C 139.612,41.6278 139.112,36.6278 139.5,31.5 Z"/></g>
<g><path style="opacity:1" fill="#5764f0" d="M 157.5,31.5 C 159.144,31.2865 160.644,31.6198 162,32.5C 163.838,37.3501 165.672,42.1834 167.5,47C 166.365,47.7494 165.365,47.5827 164.5,46.5C 162.831,42.4903 161.164,38.4903 159.5,34.5C 157.836,38.4903 156.169,42.4903 154.5,46.5C 153.635,47.5827 152.635,47.7494 151.5,47C 153.405,41.7822 155.405,36.6155 157.5,31.5 Z"/></g>
<g><path style="opacity:1" fill="#5865f2" d="M 169.5,31.5 C 173.584,31.0431 177.417,31.7098 181,33.5C 181.167,34.3333 181.333,35.1667 181.5,36C 180.167,38.3333 180.167,40.6667 181.5,43C 181.561,44.7106 180.894,46.044 179.5,47C 176.183,47.4983 172.85,47.665 169.5,47.5C 169.5,42.1667 169.5,36.8333 169.5,31.5 Z"/></g>
<g><path style="opacity:1" fill="#000000" d="M 76.5,34.5 C 78.8333,34.5 81.1667,34.5 83.5,34.5C 83.5,35.8333 83.5,37.1667 83.5,38.5C 81.1667,38.5 78.8333,38.5 76.5,38.5C 76.5,37.1667 76.5,35.8333 76.5,34.5 Z"/></g>
<g><path style="opacity:1" fill="#000000" d="M 93.5,34.5 C 100.934,34.1995 102.934,37.3662 99.5,44C 92.3333,46.1667 89.8333,43.6667 92,36.5C 92.7172,35.9558 93.2172,35.2891 93.5,34.5 Z"/></g>
<g><path style="opacity:1" fill="#000000" d="M 171.5,34.5 C 173.857,34.3367 176.19,34.5034 178.5,35C 179.833,36 179.833,37 178.5,38C 176.19,38.4966 173.857,38.6633 171.5,38.5C 171.5,37.1667 171.5,35.8333 171.5,34.5 Z"/></g>
<g><path style="opacity:1" fill="#000000" d="M 76.5,40.5 C 78.5273,40.3379 80.5273,40.5045 82.5,41C 83.3366,42.0113 83.67,43.1779 83.5,44.5C 81.1667,44.5 78.8333,44.5 76.5,44.5C 76.5,43.1667 76.5,41.8333 76.5,40.5 Z"/></g>
<g><path style="opacity:1" fill="#000000" d="M 171.5,40.5 C 173.857,40.3367 176.19,40.5034 178.5,41C 179.833,42 179.833,43 178.5,44C 176.19,44.4966 173.857,44.6633 171.5,44.5C 171.5,43.1667 171.5,41.8333 171.5,40.5 Z"/></g>
<g><path style="opacity:1" fill="#5764f1" d="M 101.5,65.5 C 102.822,65.33 103.989,65.6634 105,66.5C 106.178,69.5325 107.844,72.1992 110,74.5C 121.667,71.8333 133.333,71.8333 145,74.5C 147.11,71.2549 149.444,68.2549 152,65.5C 163.16,67.9978 173.993,71.4978 184.5,76C 204.177,104.208 211.844,135.374 207.5,169.5C 195.282,178.276 181.949,184.942 167.5,189.5C 164.001,185.173 161.001,180.506 158.5,175.5C 162.984,173.425 167.317,171.092 171.5,168.5C 170.855,167.354 170.022,166.354 169,165.5C 141.336,178.832 113.669,178.832 86,165.5C 84.0244,166.543 83.5244,167.877 84.5,169.5C 88.5089,171.504 92.5089,173.504 96.5,175.5C 93.9987,180.506 90.9987,185.173 87.5,189.5C 73.051,184.942 59.7177,178.276 47.5,169.5C 42.9115,134.778 51.0782,103.444 72,75.5C 81.704,71.4326 91.5373,68.0993 101.5,65.5 Z"/></g>
<g><path style="opacity:1" fill="#000000" d="M 96.5,117.5 C 111.556,118.064 117.389,125.73 114,140.5C 108.718,149.83 101.218,151.996 91.5,147C 82.4388,135.197 84.1055,125.364 96.5,117.5 Z"/></g>
<g><path style="opacity:1" fill="#000000" d="M 150.5,117.5 C 159.978,116.489 166.144,120.489 169,129.5C 170.058,145.45 162.891,151.617 147.5,148C 139.551,140.93 138.051,132.763 143,123.5C 145.114,120.879 147.614,118.879 150.5,117.5 Z"/></g>
<g><path style="opacity:1" fill="#5865f2" d="M 85.5,205.5 C 87.256,206.552 87.9227,208.219 87.5,210.5C 93.8191,208.833 96.8191,211.166 96.5,217.5C 96.1667,219.167 95.8333,220.833 95.5,222.5C 94.6786,219.553 94.1786,216.553 94,213.5C 91.9592,212.577 89.7925,212.244 87.5,212.5C 87.8204,215.898 87.487,219.232 86.5,222.5C 85.5046,216.872 85.1712,211.206 85.5,205.5 Z"/></g>
<g><path style="opacity:1" fill="#5865f2" d="M 68.5,206.5 C 70.337,206.639 70.6704,207.306 69.5,208.5C 68.7025,208.043 68.3691,207.376 68.5,206.5 Z"/></g>
<g><path style="opacity:1" fill="#5764f1" d="M 54.5,207.5 C 58.1064,207.211 61.6064,207.544 65,208.5C 65.8952,211.466 65.3952,214.133 63.5,216.5C 64.373,218.413 65.373,220.247 66.5,222C 65.5,222.667 64.5,222.667 63.5,222C 62.5,220.333 61.5,218.667 60.5,217C 59.2068,216.51 57.8734,216.343 56.5,216.5C 56.7989,218.604 56.4656,220.604 55.5,222.5C 52.4612,214.536 55.1279,211.536 63.5,213.5C 63.67,212.178 63.3366,211.011 62.5,210C 59.3248,210.053 56.6581,209.22 54.5,207.5 Z"/></g>
<g><path style="opacity:1" fill="#5663ef" d="M 104.5,207.5 C 107.85,207.335 111.183,207.502 114.5,208C 117.08,210.544 117.08,213.044 114.5,215.5C 112.253,216.374 109.92,216.708 107.5,216.5C 107.5,218.5 107.5,220.5 107.5,222.5C 106.5,222.5 105.5,222.5 104.5,222.5C 102.828,214.847 105.828,211.847 113.5,213.5C 113.67,212.178 113.337,211.011 112.5,210C 109.325,210.053 106.658,209.22 104.5,207.5 Z"/></g>
<g><path style="opacity:1" fill="#5865f2" d="M 68.5,210.5 C 69.7943,212.048 70.4609,214.048 70.5,216.5C 70.1667,218.5 69.8333,220.5 69.5,222.5C 68.5091,218.555 68.1758,214.555 68.5,210.5 Z"/></g>
<g><path style="opacity:1" fill="#5663ee" d="M 75.5,210.5 C 84.5174,210.773 84.684,211.773 76,213.5C 75.5045,215.473 75.3379,217.473 75.5,219.5C 77.8333,219.5 80.1667,219.5 82.5,219.5C 82.5,220.5 82.5,221.5 82.5,222.5C 73.063,222.489 70.7296,218.489 75.5,210.5 Z"/></g>
<g><path style="opacity:1" fill="#5764f1" d="M 118.5,210.5 C 120.924,210.192 123.257,210.526 125.5,211.5C 123.955,212.452 122.288,212.785 120.5,212.5C 120.5,215.833 120.5,219.167 120.5,222.5C 119.5,222.5 118.5,222.5 117.5,222.5C 117.307,218.434 117.64,214.434 118.5,210.5 Z"/></g>
<g><path style="opacity:1" fill="#5663ee" d="M 128.5,210.5 C 131.448,210.223 134.281,210.556 137,211.5C 137.798,213.259 137.631,214.926 136.5,216.5C 125.956,217.621 125.956,218.621 136.5,219.5C 136.5,220.5 136.5,221.5 136.5,222.5C 126.841,223.185 124.175,219.185 128.5,210.5 Z"/></g>
<g><path style="opacity:1" fill="#5865f2" d="M 140.5,210.5 C 150.277,210.647 150.611,211.647 141.5,213.5C 141.709,214.086 142.043,214.586 142.5,215C 144.5,215.333 146.5,215.667 148.5,216C 150.14,218.776 149.473,220.776 146.5,222C 144.19,222.497 141.857,222.663 139.5,222.5C 139.5,221.5 139.5,220.5 139.5,219.5C 142.247,219.813 144.914,219.48 147.5,218.5C 141.36,218.714 139.026,216.047 140.5,210.5 Z"/></g>
<g><path style="opacity:1" fill="#5764f0" d="M 152.5,210.5 C 155.187,210.336 157.854,210.503 160.5,211C 162.211,212.133 162.711,213.633 162,215.5C 159.426,217.002 156.593,218.002 153.5,218.5C 156.086,219.48 158.753,219.813 161.5,219.5C 161.5,220.5 161.5,221.5 161.5,222.5C 151.794,223.621 148.794,219.621 152.5,210.5 Z"/></g>
<g><path style="opacity:1" fill="#5865f2" d="M 164.5,210.5 C 174.699,208.702 178.032,212.702 174.5,222.5C 173.679,219.553 173.179,216.553 173,213.5C 170.959,212.577 168.792,212.244 166.5,212.5C 166.82,215.898 166.487,219.232 165.5,222.5C 164.509,218.555 164.176,214.555 164.5,210.5 Z"/></g>
<g><path style="opacity:1" fill="#5865f2" d="M 180.5,210.5 C 190.209,210.797 190.542,211.63 181.5,213C 180.167,215 180.167,217 181.5,219C 183.81,219.497 186.143,219.663 188.5,219.5C 188.5,220.5 188.5,221.5 188.5,222.5C 178.781,223.049 176.115,219.049 180.5,210.5 Z"/></g>
<g><path style="opacity:1" fill="#5865f2" d="M 191.5,210.5 C 194.187,210.336 196.854,210.503 199.5,211C 201.211,212.133 201.711,213.633 201,215.5C 198.426,217.002 195.593,218.002 192.5,218.5C 195.086,219.48 197.753,219.813 200.5,219.5C 200.5,220.5 200.5,221.5 200.5,222.5C 190.79,223.665 187.79,219.665 191.5,210.5 Z"/></g>
<g><path style="opacity:1" fill="#000000" d="M 129.5,212.5 C 131.977,212.051 133.977,212.717 135.5,214.5C 133.167,215.833 130.833,215.833 128.5,214.5C 128.863,213.817 129.196,213.15 129.5,212.5 Z"/></g>
<g><path style="opacity:1" fill="#000000" d="M 154.5,212.5 C 156.75,212.181 158.75,212.681 160.5,214C 158.317,215.694 155.984,215.861 153.5,214.5C 153.863,213.817 154.196,213.15 154.5,212.5 Z"/></g>
<g><path style="opacity:1" fill="#000000" d="M 193.5,212.5 C 195.75,212.181 197.75,212.681 199.5,214C 197.317,215.694 194.984,215.861 192.5,214.5C 192.863,213.817 193.196,213.15 193.5,212.5 Z"/></g>
</svg>
